<svg width="17" height="17" viewBox="0 0 17 17" fill="none" xmlns="http://www.w3.org/2000/svg">
<path d="M11.1004 11.5126L12.4466 10.1701C12.6279 9.99153 12.8573 9.86929 13.1069 9.81822C13.3566 9.76715 13.6157 9.78946 13.8528 9.88242L15.4935 10.5357C15.7331 10.6327 15.9386 10.7983 16.0841 11.0116C16.2295 11.225 16.3084 11.4764 16.3108 11.7344V14.7311C16.3094 14.9066 16.2724 15.08 16.202 15.2408C16.1317 15.4016 16.0294 15.5466 15.9014 15.667C15.7734 15.7874 15.6223 15.8807 15.4572 15.9413C15.292 16.0019 15.1163 16.0286 14.9406 16.0197C3.44416 15.3065 1.12444 5.59713 0.685738 1.88121C0.665373 1.69873 0.68398 1.51402 0.740334 1.33923C0.796689 1.16444 0.889513 1.00353 1.0127 0.867081C1.13589 0.730637 1.28665 0.621752 1.45507 0.547589C1.62348 0.473426 1.80573 0.435665 1.98983 0.436792H4.89248C5.1515 0.437557 5.40437 0.515586 5.61856 0.660844C5.83275 0.806101 5.99847 1.01194 6.09441 1.2519L6.74946 2.8881C6.84576 3.12368 6.87033 3.38234 6.8201 3.63177C6.76986 3.8812 6.64705 4.11034 6.467 4.29056L5.12085 5.63309C5.12085 5.63309 5.89609 10.8653 11.1004 11.5126Z" fill="#331A2F"/>
</svg>
