<svg width="110" height="110" viewBox="0 0 110 110" fill="none" xmlns="http://www.w3.org/2000/svg">
<g filter="url(#filter0_d_1511_14255)">
<rect x="25" y="21" width="60" height="60" rx="15" fill="#CF51CE"/>
</g>
<path d="M46.5641 69.3297C45.8753 69.0236 45.5691 68.5644 45.6457 67.7991C45.6457 67.4164 45.6457 66.9572 45.6457 66.5745C45.4926 66.5745 45.3395 66.5745 45.1865 66.5745C43.3497 66.5745 41.5894 66.5745 39.7526 66.5745C38.8342 66.5745 38.375 66.1153 38.375 65.1969C38.375 64.8143 38.375 64.4316 38.375 64.0489C38.375 63.6663 38.6046 63.4367 38.9107 63.4367C39.2169 63.4367 39.4465 63.6663 39.4465 64.0489C39.4465 64.4316 39.4465 64.8143 39.4465 65.1969C39.4465 65.35 39.523 65.4265 39.6761 65.4265C41.6659 65.4265 43.5793 65.4265 45.6457 65.4265C45.6457 64.202 45.6457 63.054 45.6457 61.906C44.1915 60.9876 43.7323 60.3753 43.5027 58.6916C42.5843 58.6916 41.6659 58.6151 40.8241 58.6916C40.0587 58.7681 39.523 59.61 39.4465 60.4519C39.4465 60.8345 39.4465 61.1407 39.4465 61.5233C39.4465 61.906 39.2169 62.1356 38.9107 62.1356C38.6046 62.1356 38.375 61.906 38.375 61.5233C38.375 61.1407 38.375 60.6815 38.375 60.2988C38.4515 59.3804 38.9107 58.6151 39.6761 58.0793C39.7526 58.0028 39.8291 58.0028 39.9057 57.9263C39.5995 56.9313 39.2169 56.0129 38.9873 55.0945C37.7627 50.1964 38.5281 45.6809 41.3598 41.4716C41.5129 41.242 41.5894 41.0889 41.4363 40.7828C41.0537 40.0175 41.2067 39.0991 41.819 38.4868C42.4313 37.8745 43.2731 37.6449 44.115 38.0276C44.2681 38.1807 44.4211 38.1041 44.5742 37.9511C45.4926 37.3388 46.3345 36.7265 47.2529 36.1143C47.6355 35.8847 47.9417 35.9612 48.0947 36.2673C48.2478 36.5735 48.0947 36.8031 47.7886 37.0327C46.9467 37.6449 46.1049 38.1807 45.263 38.7929C45.1099 38.8695 45.1099 39.0225 45.1865 39.1756C45.4926 39.9409 45.3395 40.7063 44.8038 41.242C44.2681 41.8543 43.5793 42.0839 42.7374 41.8543C42.5078 41.7777 42.4313 41.8543 42.2782 42.0073C40.7475 44.2268 39.8291 46.6759 39.5995 49.4311C39.2934 52.1863 39.7526 54.7884 40.8241 57.314C40.9006 57.5436 41.0537 57.6201 41.3598 57.6201C42.4313 57.6201 43.5027 57.6201 44.4977 57.6201C44.5742 57.314 44.4977 57.1609 44.3446 57.0079C43.4262 56.2425 42.8139 55.3241 42.6609 54.1761C42.6609 53.9465 42.5843 53.87 42.3547 53.7935C40.9771 53.4108 40.5179 51.7271 41.5129 50.6556C41.5894 50.5791 41.6659 50.3495 41.6659 50.1964C41.6659 49.0484 41.6659 47.9769 41.6659 46.8289C41.6659 45.1452 42.7374 43.9207 44.2681 43.6145C44.4977 43.538 44.8038 43.538 45.0334 43.538C46.1814 43.538 47.3294 43.538 48.4774 43.538C49.2427 43.538 50.0081 43.7676 50.6203 44.3033C50.6969 44.3799 50.8499 44.3799 50.9265 44.3799C51.6153 44.0737 52.3041 43.9972 53.0694 43.9972C53.4521 43.9972 53.7582 43.9972 54.1409 43.9972C54.447 43.9972 54.6766 44.2268 54.7531 44.5329C54.7531 44.8391 54.5235 45.0687 54.1409 45.0687C53.6051 45.0687 53.0694 45.0687 52.5337 45.0687C51.1561 45.0687 50.0081 46.1401 49.9315 47.5177C49.855 48.6657 49.9315 49.8137 49.9315 50.9617C49.9315 51.0383 49.9315 51.0383 49.9315 51.1148C50.2377 51.1913 50.2377 51.0383 50.3142 50.8087C50.4673 49.9668 50.7734 49.2015 51.2326 48.5127C51.5387 48.13 51.6918 48.0535 52.151 48.2065C53.6051 48.6657 54.9827 49.0484 56.5134 49.2015C56.8961 49.2015 57.3552 49.2015 57.7379 49.1249C57.9675 49.0484 58.2737 48.8953 58.4267 48.7423C58.7329 48.4361 59.1155 48.4361 59.3451 48.8188C59.7278 49.4311 60.0339 50.1199 60.1104 50.8087C60.1104 50.9617 60.187 51.1913 60.4166 51.1148C60.4166 51.0383 60.4166 50.9617 60.4166 50.8852C60.4166 50.1199 60.4166 49.3545 60.4166 48.5892C60.4166 48.2065 60.34 47.9769 59.8808 47.9769C59.5747 47.9004 59.4216 47.6708 59.4216 47.3647C59.4216 46.7524 59.1921 46.2932 58.8094 45.834C58.3502 45.2983 57.7379 45.0687 57.1257 45.0687C56.8961 45.0687 56.6665 45.0687 56.5134 45.0687C56.2073 45.0687 55.9777 44.8391 55.9777 44.5329C55.9777 44.2268 56.2073 43.9972 56.5134 43.9972C57.3553 43.9207 58.1971 44.0737 58.8859 44.4564C59.6512 43.6911 60.5696 43.4615 61.5646 43.538C62.7126 43.538 63.784 43.538 64.932 43.538C66.3862 43.538 67.5342 44.4564 67.9168 45.834C67.9168 45.9105 67.9934 46.0636 68.1464 46.1401C68.6056 46.4463 68.8352 46.9055 68.8352 47.4412C68.8352 48.2831 68.8352 49.2015 68.8352 50.0433C68.8352 50.1964 68.9118 50.426 69.0648 50.5025C70.0598 51.574 69.6006 53.1812 68.223 53.6404C67.9934 53.7169 67.9934 53.7935 67.9168 53.9465C67.6872 55.0945 67.1515 56.0895 66.2331 56.8548C66.08 56.9313 66.08 57.1609 65.927 57.314L66.0035 57.3905C66.5392 57.3905 66.9984 57.3905 67.5342 57.3905C68.0699 57.3905 68.6822 57.3905 69.2179 57.3905C69.524 57.3905 69.6006 57.314 69.7536 57.0844C70.8251 54.5588 71.2078 51.9567 70.9782 49.278C70.7486 46.5993 69.8302 44.1503 68.376 41.9308C68.223 41.7012 68.0699 41.6247 67.8403 41.7012C67.075 41.9308 66.3862 41.7012 65.8504 41.0889C65.3147 40.4767 65.1616 39.7879 65.4678 39.0225C65.3912 39.0225 65.3147 38.8695 65.1616 38.7164C62.9422 36.9561 60.4166 35.8081 57.5849 35.3489C57.2787 35.2724 57.1257 35.3489 56.9726 35.6551C56.2073 37.0327 54.2174 36.9561 53.4521 35.6551C53.299 35.4255 53.1459 35.3489 52.9163 35.4255C51.9979 35.6551 51.0795 35.8847 50.1611 36.1143C50.0081 36.1908 49.7019 36.1908 49.5489 36.1143C49.3958 36.0377 49.2427 35.8081 49.3193 35.6551C49.3958 35.502 49.5489 35.1959 49.7019 35.1959C50.6203 34.8897 51.4622 34.7367 52.3806 34.5071C52.4571 34.5071 52.4571 34.5071 52.5337 34.5071C52.9929 34.5071 53.2225 34.354 53.3755 33.8948C53.7582 32.9764 54.447 32.5938 55.3654 32.5938C56.2073 32.6703 56.8961 33.0529 57.2022 33.8948C57.3553 34.2009 57.5083 34.2775 57.8144 34.354C60.8758 34.8132 63.5544 35.9612 65.927 37.9511C66.1566 38.1041 66.3096 38.1807 66.6158 38.0276C67.3811 37.7215 68.2995 37.9511 68.8352 38.5633C69.371 39.1756 69.524 40.094 69.1414 40.8593C69.0648 41.0124 68.9883 41.1655 69.1414 41.3951C72.5854 46.5228 73.0446 51.9567 70.7486 57.6967C70.7486 57.7732 70.672 57.8497 70.672 57.9263C70.8251 58.0028 70.9016 58.0793 71.0547 58.2324C71.82 58.8447 72.2027 59.61 72.2027 60.6049C72.2027 62.1356 72.2027 63.7428 72.2027 65.2735C72.2027 66.1919 71.7435 66.6511 70.8251 66.6511C68.9883 66.6511 67.228 66.6511 65.3912 66.6511C65.2382 66.6511 65.0851 66.6511 64.932 66.6511C64.932 67.1103 64.932 67.4929 64.932 67.8756C65.0086 68.6409 64.7024 69.1001 64.0136 69.4062C58.1206 69.3297 52.3806 69.3297 46.5641 69.3297ZM59.1155 60.6049C58.8859 63.054 57.0491 64.3551 55.2889 64.3551C54.3705 64.3551 53.6051 64.1255 52.9163 63.5132C51.9214 62.7479 51.4622 61.7529 51.3857 60.5284C50.5438 60.5284 49.7785 60.5284 48.9366 60.5284C47.559 60.5284 46.7171 61.3703 46.7171 62.7479C46.7171 64.4316 46.7171 66.1153 46.7171 67.7991C46.7171 68.1052 46.7937 68.2583 47.1763 68.2583C50.3142 68.2583 53.4521 68.2583 56.5899 68.2583C58.8859 68.2583 61.1819 68.2583 63.4779 68.2583C63.631 68.2583 63.8606 68.3348 63.8606 68.0287C63.8606 66.1919 63.8606 64.4316 63.8606 62.5948C63.8606 61.5999 63.0187 60.6815 62.1003 60.6815C61.0288 60.5284 60.1104 60.6049 59.1155 60.6049ZM58.8859 50.1199C56.4369 50.9617 54.2939 50.0433 52.0745 49.5076C51.9979 49.5841 51.9214 49.6607 51.9214 49.8137C51.5387 50.3495 51.3857 50.9617 51.3857 51.574C51.3857 52.8751 51.3091 54.1761 51.4622 55.4007C51.6918 57.3905 53.5286 58.8447 55.5185 58.6916C57.5083 58.5385 59.1155 56.9313 59.1155 54.9415C59.1155 53.7935 59.1155 52.6455 59.1155 51.4975C59.1155 51.0383 58.9624 50.5791 58.8859 50.1199ZM43.9619 48.9719C43.8854 49.4311 43.7323 49.8137 43.6558 50.1964C43.5793 51.3444 43.5793 52.5689 43.6558 53.7169C43.8089 55.7833 45.6457 57.1609 47.6355 56.8548C48.6305 56.7017 49.4723 56.0895 50.0081 55.2476C49.9315 55.2476 49.855 55.1711 49.855 55.1711C48.5539 54.6353 48.0947 53.4108 48.7835 52.1863C48.7835 52.1097 48.8601 52.1097 48.8601 52.0332C48.8601 51.2679 48.8601 50.5791 48.8601 49.8137C47.1763 49.8137 45.6457 49.4311 43.9619 48.9719ZM70.9782 65.5031C70.9782 63.7428 70.9782 62.0591 70.9782 60.3753C70.9782 59.61 70.3659 58.8447 69.6006 58.7681C68.6822 58.6916 67.8403 58.7681 66.9219 58.7681C66.6923 60.4519 66.2331 61.1407 64.779 61.9825C64.779 63.2071 64.779 64.3551 64.779 65.5031C66.9219 65.5031 68.9118 65.5031 70.9782 65.5031ZM60.4931 55.1711C60.4931 55.2476 60.5696 55.3241 60.5696 55.3241C61.335 56.4721 62.8656 57.0844 64.1667 56.7783C65.6208 56.3956 66.6923 55.2476 66.7688 53.7935C66.8454 52.722 66.8454 51.574 66.7688 50.5025C66.7688 50.1199 66.6158 49.6607 66.6158 49.278C64.8555 50.1199 63.2483 49.5841 61.5646 49.278C61.5646 50.0433 61.5646 50.8087 61.5646 51.574C61.5646 51.8036 61.6411 51.9567 61.7176 52.1097C62.2534 53.1812 61.8707 54.4823 60.7227 54.9415C60.6462 55.0945 60.5696 55.1711 60.4931 55.1711ZM59.8043 45.2217C60.0339 45.7575 60.2635 46.2932 60.4931 46.8289C60.5696 47.0585 60.6462 47.1351 60.7992 47.2881C61.0288 47.5177 61.2584 47.7473 61.488 48.0535C61.5646 48.13 61.7176 48.2831 61.7942 48.3596C62.3299 48.5127 62.7891 48.6657 63.3248 48.6657C64.0902 48.7423 64.779 48.7423 65.5443 48.6657C65.7739 48.6657 65.927 48.3596 66.08 48.2065C66.2331 48.0535 66.3862 47.8239 66.5392 47.8239C66.6923 47.8239 66.9219 47.9769 67.075 48.13C67.3046 48.4361 67.4576 48.7423 67.6107 49.1249C67.6107 48.5127 67.6107 47.9769 67.6107 47.5177C67.6107 47.4412 67.4576 47.2881 67.3811 47.2116C66.9984 47.1351 66.8454 46.9055 66.8454 46.5228C66.7688 45.5279 66.0035 44.7625 65.0086 44.7625C63.7075 44.7625 62.4064 44.7625 61.1054 44.7625C60.5696 44.686 60.1104 44.9156 59.8043 45.2217ZM42.8139 48.9719C42.967 48.7423 43.1201 48.5127 43.1966 48.2831C43.5027 47.8239 43.6558 47.7473 44.1915 47.9004C44.9569 48.13 45.7222 48.2831 46.4875 48.5127C47.2529 48.6657 48.0947 48.8188 48.9366 48.6657C48.8601 47.3647 49.0131 46.1401 49.9315 45.2217C49.5489 44.9156 49.1662 44.7625 48.707 44.7625C47.4059 44.7625 46.1814 44.7625 44.8803 44.7625C43.7323 44.7625 42.8905 45.5279 42.8139 46.6759C42.7374 47.3647 42.8139 48.2065 42.8139 48.9719ZM56.8195 59.5335C55.595 59.8396 55.2123 59.9161 53.6051 59.5335C53.8347 60.4519 53.299 60.6815 52.5337 60.5284C52.6102 62.0591 53.8347 63.2836 55.3654 63.2836C56.8961 63.2071 58.1206 61.9825 58.0441 60.6049C57.7379 60.5284 57.3553 60.5284 57.2022 60.3753C56.8961 60.2223 56.8961 59.8396 56.8195 59.5335ZM46.0283 60.9111C46.411 60.5284 46.7937 60.2223 47.1763 59.9161C47.7886 59.5335 48.4009 59.4569 49.1662 59.4569C49.3193 59.4569 49.4723 59.3804 49.4723 59.3039C49.5489 59.1508 49.5489 58.9212 49.6254 58.6151C48.9366 58.6916 48.4774 58.5385 48.5539 57.6967C47.559 58.0028 46.6406 58.0028 45.7222 57.7732C45.6457 58.0793 45.5691 58.3855 45.4161 58.5385C45.263 58.6916 44.8803 58.6916 44.6507 58.7681C44.5742 59.61 45.1865 60.5284 46.0283 60.9111ZM61.9472 57.7732C61.7942 58.5385 61.7942 58.5385 60.9523 58.6916C60.8758 59.3804 60.9523 59.4569 61.6411 59.4569C62.483 59.4569 63.2483 59.6865 63.8606 60.2988C64.0902 60.4519 64.2432 60.6815 64.4728 60.9111C65.3912 60.5284 66.08 59.4569 65.927 58.6916C65.0851 58.6151 65.0086 58.6916 64.932 57.7732C63.8606 58.0793 62.9422 58.0028 61.9472 57.7732ZM43.2731 40.9359C43.8089 40.9359 44.2681 40.4767 44.2681 39.9409C44.2681 39.4052 43.8089 38.946 43.3497 38.946C42.8139 38.946 42.3547 39.3287 42.3547 39.8644C42.2782 40.4767 42.7374 40.9359 43.2731 40.9359ZM55.2123 35.5785C55.7481 35.5785 56.2073 35.1193 56.2073 34.5836C56.2073 34.0479 55.7481 33.6652 55.2123 33.5887C54.6766 33.5887 54.2174 34.0479 54.2174 34.5836C54.2939 35.1959 54.6766 35.5785 55.2123 35.5785ZM67.228 40.9359C67.7638 40.9359 68.223 40.4767 68.223 39.9409C68.223 39.4052 67.8403 39.0225 67.3046 38.946C66.7688 38.946 66.3096 39.3287 66.3096 39.8644C66.2331 40.4767 66.6923 40.9359 67.228 40.9359ZM52.4571 59.4569C52.5337 58.9977 52.3806 58.6916 52.0745 58.6916C51.6153 58.6151 51.1561 58.6916 50.6203 58.6916C50.6203 58.9977 50.5438 59.2273 50.5438 59.4569C51.2326 59.4569 51.8449 59.4569 52.4571 59.4569ZM59.8043 58.6916C59.4216 58.6916 59.039 58.6916 58.6563 58.6916C58.1206 58.6916 57.891 58.9212 58.0441 59.4569C58.6563 59.4569 59.2686 59.4569 59.9574 59.4569C59.8808 59.1508 59.8808 58.9212 59.8043 58.6916ZM60.8758 57.5436C60.8758 56.8548 60.187 56.7783 59.9574 56.3191C59.7278 56.7783 59.5747 57.0844 59.3451 57.5436C59.8808 57.5436 60.34 57.5436 60.8758 57.5436ZM51.0795 57.5436C50.8499 57.1609 50.6969 56.7783 50.4673 56.3956C50.2377 56.6252 50.0846 56.7783 49.855 56.9313C49.6254 57.0844 49.3958 57.2375 49.5489 57.5436C50.1611 57.5436 50.6203 57.5436 51.0795 57.5436ZM50.2377 54.0996C50.2377 53.4873 50.2377 52.9516 50.2377 52.3393C49.7785 52.4159 49.5489 52.722 49.5489 53.1047C49.5489 53.5639 49.7785 53.9465 50.2377 54.0996ZM60.187 52.3393C60.187 52.9516 60.187 53.4873 60.187 54.0996C60.6462 54.0231 60.8758 53.6404 60.8758 53.2577C60.9523 52.7985 60.6462 52.4924 60.187 52.3393ZM42.5843 51.2679C42.2017 51.4209 42.0486 51.7271 42.0486 52.0332C42.0486 52.3393 42.2017 52.5689 42.5843 52.722C42.5843 52.2628 42.5843 51.8036 42.5843 51.2679ZM67.9168 52.722C68.2995 52.5689 68.4526 52.3393 68.4526 51.9567C68.4526 51.6505 68.2995 51.4209 67.9168 51.2679C67.9168 51.8036 67.9168 52.2628 67.9168 52.722Z" fill="white"/>
<defs>
<filter id="filter0_d_1511_14255" x="0" y="0" width="110" height="110" filterUnits="userSpaceOnUse" color-interpolation-filters="sRGB">
<feFlood flood-opacity="0" result="BackgroundImageFix"/>
<feColorMatrix in="SourceAlpha" type="matrix" values="0 0 0 0 0 0 0 0 0 0 0 0 0 0 0 0 0 0 127 0" result="hardAlpha"/>
<feOffset dy="4"/>
<feGaussianBlur stdDeviation="12.5"/>
<feComposite in2="hardAlpha" operator="out"/>
<feColorMatrix type="matrix" values="0 0 0 0 0.917647 0 0 0 0 0.364706 0 0 0 0 0.733333 0 0 0 0.25 0"/>
<feBlend mode="normal" in2="BackgroundImageFix" result="effect1_dropShadow_1511_14255"/>
<feBlend mode="normal" in="SourceGraphic" in2="effect1_dropShadow_1511_14255" result="shape"/>
</filter>
</defs>
</svg>
