<svg width="110" height="110" viewBox="0 0 110 110" fill="none" xmlns="http://www.w3.org/2000/svg">
<g filter="url(#filter0_d_1511_14263)">
<rect x="25" y="21" width="60" height="60" rx="15" fill="#CF51CE"/>
</g>
<path d="M54.5748 69.9458C53.8701 69.7832 53.2196 69.5663 52.7859 68.97C52.5149 68.5906 52.298 68.1027 52.0812 67.669C51.9728 67.4522 51.9186 67.3438 51.7017 67.2896C50.2923 67.0185 48.8829 66.5307 47.5819 65.8802C45.522 64.8502 43.7331 63.4408 42.2695 61.6519C42.1069 61.4351 41.9442 61.4351 41.7274 61.4893C40.3722 61.9772 38.9086 61.3809 38.2039 60.1341C37.4992 58.8331 37.7702 57.2611 38.9628 56.3937C39.1796 56.2311 39.2338 56.0685 39.1254 55.7974C38.1497 52.5991 38.1497 49.3466 39.1254 46.1484C39.1796 45.9315 39.1796 45.7689 38.9628 45.6063C37.7702 44.7389 37.445 43.1669 38.1497 41.8659C38.8544 40.5649 40.318 40.0228 41.7274 40.5107C41.9985 40.6191 42.1069 40.5107 42.2695 40.3481C43.7331 38.5592 45.522 37.1498 47.5819 36.1198C48.8287 35.4693 50.1839 35.0357 51.5391 34.7646C51.8644 34.7104 52.0812 34.602 52.1896 34.1683C52.4064 32.8673 53.6532 32 55.0084 32C56.3636 32 57.5562 32.9757 57.8273 34.2767C57.8815 34.602 58.0441 34.7104 58.3151 34.7646C60.5377 35.1983 62.5434 36.0656 64.3865 37.3666C65.6333 38.234 66.7174 39.2097 67.639 40.3481C67.8016 40.5649 67.9642 40.6191 68.2353 40.5107C69.5363 40.0228 71.0541 40.6191 71.7588 41.8117C72.4635 43.1127 72.1925 44.6847 71.0541 45.5521C70.8373 45.7147 70.783 45.8773 70.8373 46.1484C71.813 49.3466 71.813 52.5991 70.8373 55.7974C70.783 56.0143 70.783 56.1769 70.9999 56.3395C72.084 57.1526 72.4635 58.6705 71.9214 59.9173C71.3251 61.2183 69.9157 61.9772 68.6147 61.5977C68.0184 61.4351 67.7474 61.5977 67.3679 62.0314C64.9828 64.7418 61.9471 66.4765 58.4236 67.2354C58.0983 67.2896 57.8815 67.4522 57.8273 67.8317C57.502 68.97 56.7431 69.6205 55.6589 69.9458C55.5505 69.9458 55.4963 70 55.3879 70C55.0626 69.9458 54.8458 69.9458 54.5748 69.9458ZM54.9542 42.679C50.4007 42.679 46.6604 46.4194 46.6604 50.9729C46.6604 55.5264 50.4007 59.2668 54.9542 59.2668C59.5077 59.2668 63.2481 55.5264 63.2481 50.9729C63.2481 46.4194 59.5077 42.679 54.9542 42.679ZM52.1354 35.8488C48.395 36.5535 45.3594 38.3966 42.9742 41.3238C43.6247 42.1369 43.8415 43.0043 43.6247 43.98C43.6247 44.0884 43.7331 44.1969 43.7873 44.2511C44.492 44.6305 45.1967 45.01 45.9014 45.3894C46.2267 45.5521 46.5519 45.7689 46.8772 45.9315C48.8287 43.0585 51.4849 41.4864 54.9542 41.4864C58.4236 41.4864 61.0256 43.1127 62.9771 45.9315C63.8986 45.4437 64.7659 44.9558 65.6333 44.4679C66.0669 44.2511 66.338 44.0342 66.2296 43.4379C66.0669 42.6248 66.3922 41.9201 66.9343 41.2696C64.5491 38.3424 61.5134 36.4993 57.7731 35.7946C57.3936 36.933 56.6347 37.5835 55.4963 37.8545C55.4963 38.6676 55.4963 39.4807 55.4963 40.2397C55.1169 40.2397 54.7374 40.2397 54.3037 40.2397C54.3037 39.4265 54.3037 38.6134 54.3037 37.8545C53.2738 37.5835 52.5149 36.933 52.1354 35.8488ZM42.9742 60.622C45.4136 63.5492 48.395 65.3923 52.1354 66.097C52.5149 65.0128 53.2738 64.3081 54.4121 64.0371C54.4121 63.224 54.4121 62.4108 54.4121 61.6519C54.8458 61.6519 55.1711 61.6519 55.6047 61.6519C55.6047 62.465 55.6047 63.2782 55.6047 64.0371C56.7431 64.3081 57.4478 65.0128 57.8273 66.097C61.5676 65.3381 64.6033 63.5492 66.9885 60.622C66.2838 59.5378 66.2296 59.2126 66.338 57.9658C66.338 57.8573 66.2838 57.7489 66.2296 57.6947C65.1996 57.0984 64.1154 56.5563 63.0313 55.9601C61.0798 58.8331 58.4236 60.4051 54.9542 60.4051C51.4849 60.4051 48.8287 58.7789 46.8772 55.9601C45.793 56.5563 44.7631 57.0984 43.7331 57.6947C43.6789 57.7489 43.5705 57.8573 43.6247 57.9658C43.8415 58.9957 43.5705 59.8631 42.9742 60.622ZM46.3351 54.9301C45.1967 52.2739 45.1967 49.6177 46.3351 46.9615C45.1967 46.3652 44.1126 45.7147 42.9742 45.1184C42.2153 45.9315 41.348 46.2568 40.2638 46.1484C39.288 49.3466 39.288 52.4907 40.2638 55.689C41.348 55.5806 42.2153 55.9601 42.9742 56.719C44.1126 56.1769 45.1967 55.5806 46.3351 54.9301ZM66.9343 56.7732C67.639 56.0685 68.4521 55.6348 69.482 55.689C69.5363 55.689 69.6989 55.5264 69.7531 55.4722C70.2952 53.7375 70.512 52.0029 70.4036 50.1598C70.3494 48.8046 70.1325 47.5036 69.6447 46.2026C68.6147 46.311 67.7474 45.9857 67.0427 45.281C66.9885 45.2268 66.8258 45.2268 66.7174 45.281C66.2296 45.5521 65.7417 45.8231 65.308 46.0399C64.7659 46.3652 64.1696 46.6362 63.6276 46.9615C64.7659 49.6177 64.7659 52.2739 63.6276 54.9301C64.7117 55.5806 65.7959 56.1769 66.9343 56.7732ZM54.9542 36.7161C55.93 36.7161 56.7431 35.903 56.7431 34.9815C56.7431 34.0057 55.9842 33.1926 55.0084 33.1926C54.0327 33.1926 53.2196 34.0057 53.2196 34.9815C53.1654 35.903 53.9785 36.7161 54.9542 36.7161ZM42.4863 43.2753C42.4863 42.2996 41.6732 41.4864 40.6975 41.4864C39.7217 41.4864 38.9086 42.2996 38.9086 43.2753C38.9086 44.2511 39.7217 45.01 40.6975 45.01C41.7274 45.01 42.4863 44.1969 42.4863 43.2753ZM70.9457 43.2753C70.9457 42.2996 70.1325 41.4864 69.211 41.4864C68.2353 41.4864 67.4221 42.2454 67.4221 43.2211C67.4221 44.1969 68.2353 45.01 69.211 45.01C70.1325 45.0642 70.9457 44.2511 70.9457 43.2753ZM42.4863 58.6705C42.4863 57.6947 41.6732 56.8816 40.6975 56.8816C39.7217 56.8816 38.9086 57.6947 38.9086 58.6705C38.9086 59.6462 39.7217 60.4593 40.6975 60.4593C41.7274 60.4593 42.4863 59.6462 42.4863 58.6705ZM70.9457 58.6705C70.9457 57.6947 70.1325 56.8816 69.211 56.8816C68.2353 56.8816 67.4221 57.6405 67.4221 58.6163C67.4221 59.592 68.2353 60.4051 69.211 60.4051C70.1325 60.4593 70.9457 59.6462 70.9457 58.6705ZM54.9542 65.2297C53.9785 65.2297 53.1654 66.0428 53.1654 66.9643C53.1654 67.9401 53.9785 68.7532 54.9542 68.7532C55.93 68.7532 56.7431 67.9401 56.7431 66.9643C56.7431 65.9886 55.93 65.2297 54.9542 65.2297Z" fill="white"/>
<path d="M53.0565 50.2674C51.9181 49.2375 51.7555 47.9907 52.0807 46.6355C52.406 45.2261 53.8154 44.3045 55.1706 44.4129C56.7426 44.5756 57.7726 45.7681 57.881 47.3402C57.9352 48.4243 57.7184 49.4001 56.7969 50.2132C56.9595 50.3216 57.1221 50.4843 57.2847 50.5927C58.1521 51.1348 59.0736 51.6768 59.9409 52.1647C60.1578 52.2731 60.2662 52.4358 60.212 52.7068C60.212 53.2489 60.212 53.791 60.212 54.2788C60.2662 54.9835 59.8867 55.4714 59.2904 55.6883C58.6941 55.9051 58.0436 56.0677 57.4474 56.1219C55.4959 56.2845 53.4901 56.3388 51.5387 56.0135C51.2134 55.9593 50.8882 55.8509 50.5629 55.7425C49.9124 55.4714 49.5329 54.9835 49.5872 54.2788C49.5872 53.7368 49.5872 53.1947 49.5872 52.6526C49.5872 52.4358 49.6414 52.3273 49.804 52.2189C50.7255 51.6768 51.5929 51.1348 52.5144 50.5927C52.7312 50.5385 52.8939 50.4301 53.0565 50.2674ZM54.6285 55.1462C55.7127 55.092 56.4716 55.092 57.2305 55.0378C57.7184 54.9836 58.2605 54.8751 58.7484 54.7667C59.0194 54.7125 59.0736 54.5499 59.0736 54.2788C59.2362 53.4115 58.911 52.8152 58.0436 52.49C57.9352 52.4358 57.8268 52.3816 57.7726 52.3273C57.1221 51.8937 56.4716 51.4058 55.8211 50.9721C55.7669 50.9179 55.6043 50.9179 55.4959 50.9179C55.0622 50.9179 54.6827 50.9179 54.2491 50.9179C54.1406 50.9179 53.978 50.9179 53.9238 50.9721C53.2191 51.7311 52.2976 52.1647 51.4302 52.6526C50.8882 52.9778 50.6171 53.3031 50.7255 53.9536C50.7797 54.7125 50.7797 54.7125 51.4844 54.9293C51.5387 54.9293 51.5387 54.9293 51.5929 54.9293C52.7854 54.9835 53.8696 55.092 54.6285 55.1462ZM53.1649 47.6654C53.1649 47.8281 53.1649 47.9907 53.1649 48.1533C53.2191 49.0748 53.978 49.7253 54.8454 49.7796C55.7127 49.8338 56.5258 49.2375 56.6342 48.3701C56.6884 47.8823 56.6884 47.3944 56.58 46.9607C56.309 45.8766 55.008 45.3345 54.0322 45.8766C53.4359 46.256 53.1649 46.9065 53.1649 47.6654Z" fill="white"/>
<path d="M55.5505 35.5231C55.171 35.5231 54.7916 35.5231 54.4121 35.5231C54.4121 35.1437 54.4121 34.7642 54.4121 34.3848C54.7916 34.3848 55.171 34.3848 55.5505 34.3848C55.5505 34.7642 55.5505 35.1437 55.5505 35.5231Z" fill="white"/>
<path d="M41.2927 43.8161C40.9132 43.8161 40.5338 43.8161 40.1543 43.8161C40.1543 43.4366 40.1543 43.0572 40.1543 42.6777C40.5338 42.6777 40.9132 42.6777 41.2927 42.6777C41.2927 43.0572 41.2927 43.4366 41.2927 43.8161Z" fill="white"/>
<path d="M69.7526 42.6777C69.7526 43.0572 69.7526 43.4366 69.7526 43.8161C69.3732 43.8161 68.9937 43.8161 68.6143 43.8161C68.6143 43.4366 68.6143 43.0572 68.6143 42.6777C68.9937 42.6777 69.3732 42.6777 69.7526 42.6777Z" fill="white"/>
<path d="M41.2927 59.2663C40.9132 59.2663 40.5338 59.2663 40.1543 59.2663C40.1543 58.8868 40.1543 58.5074 40.1543 58.1279C40.5338 58.1279 40.9132 58.1279 41.2927 58.1279C41.2927 58.5074 41.2927 58.8868 41.2927 59.2663Z" fill="white"/>
<path d="M69.7526 58.1279C69.7526 58.5074 69.7526 58.8868 69.7526 59.2663C69.3732 59.2663 68.9937 59.2663 68.6143 59.2663C68.6143 58.8868 68.6143 58.5074 68.6143 58.1279C68.9937 58.1279 69.3732 58.1279 69.7526 58.1279Z" fill="white"/>
<path d="M55.5505 66.4219C55.5505 66.8013 55.5505 67.1808 55.5505 67.5602C55.171 67.5602 54.7916 67.5602 54.4121 67.5602C54.4121 67.1808 54.4121 66.8013 54.4121 66.4219C54.7916 66.4219 55.1168 66.4219 55.5505 66.4219Z" fill="white"/>
<defs>
<filter id="filter0_d_1511_14263" x="0" y="0" width="110" height="110" filterUnits="userSpaceOnUse" color-interpolation-filters="sRGB">
<feFlood flood-opacity="0" result="BackgroundImageFix"/>
<feColorMatrix in="SourceAlpha" type="matrix" values="0 0 0 0 0 0 0 0 0 0 0 0 0 0 0 0 0 0 127 0" result="hardAlpha"/>
<feOffset dy="4"/>
<feGaussianBlur stdDeviation="12.5"/>
<feComposite in2="hardAlpha" operator="out"/>
<feColorMatrix type="matrix" values="0 0 0 0 0.917647 0 0 0 0 0.364706 0 0 0 0 0.733333 0 0 0 0.25 0"/>
<feBlend mode="normal" in2="BackgroundImageFix" result="effect1_dropShadow_1511_14263"/>
<feBlend mode="normal" in="SourceGraphic" in2="effect1_dropShadow_1511_14263" result="shape"/>
</filter>
</defs>
</svg>
