<svg width="110" height="110" viewBox="0 0 110 110" fill="none" xmlns="http://www.w3.org/2000/svg">
<g filter="url(#filter0_d_1511_14219)">
<rect x="25" y="21" width="60" height="60" rx="15" fill="#CF51CE"/>
</g>
<g clip-path="url(#clip0_1511_14219)">
<path d="M63.6088 43.5188C62.5401 44.5875 61.4713 45.6562 60.3432 46.7844C61.6495 48.5063 62.1245 50.4656 61.6495 52.6031C61.2338 54.2656 60.2838 55.6313 58.8588 56.5813C56.0682 58.5406 52.3276 58.125 50.012 55.6313C47.637 53.0781 47.5182 49.3375 49.7745 46.6656C51.7932 44.2313 55.712 43.0437 59.2151 45.5969C60.2838 44.5281 61.3526 43.4594 62.4213 42.3313C60.5213 40.7281 58.3245 39.7781 55.712 39.6C55.712 40.3125 55.712 40.9656 55.712 41.6781C55.712 42.2719 55.4151 42.6281 54.9401 42.6281C54.4651 42.6281 54.1682 42.2719 54.1682 41.6781C54.1682 40.1344 54.1682 38.65 54.1682 37.1063C54.1682 36.9281 54.1682 36.75 54.1682 36.5719C52.6838 36.6312 51.2588 36.9281 49.8932 37.4625C45.1432 39.3625 42.1151 42.8063 40.8682 47.7937C40.8682 47.9125 40.8088 47.9719 40.8088 48.0906C40.6901 48.5063 40.3338 48.7437 39.9182 48.6844C39.5026 48.5656 39.2651 48.2094 39.3245 47.7344C39.7401 45.5969 40.5713 43.6375 41.8182 41.9156C44.787 37.9375 48.6463 35.6219 53.5745 35.1469C53.7526 35.1469 53.9901 35.0875 54.2276 35.0875C54.2276 34.4344 54.2276 33.7219 54.2276 33.0688C54.2276 32.3562 54.4651 32 54.9995 32C55.4745 32 55.7713 32.3563 55.7713 33.0094C55.7713 34.5531 55.7713 36.0375 55.7713 37.5812C55.7713 37.7594 55.7713 37.9375 55.7713 38.1156C58.7401 38.3531 61.3526 39.4219 63.5495 41.3219C63.9057 40.9656 64.2026 40.6094 64.6182 40.1938C63.8463 39.6594 63.1338 39.0656 62.3026 38.5906C60.9963 37.8188 59.6307 37.225 58.1463 36.9281C58.0276 36.9281 57.9088 36.8688 57.8495 36.8688C57.4338 36.75 57.1963 36.3344 57.3151 35.9188C57.4338 35.5031 57.7901 35.2656 58.2651 35.3844C60.1651 35.7406 61.887 36.4531 63.4901 37.5219C64.262 38.0563 64.9745 38.5906 65.8651 39.2438C65.9245 39.0062 66.1026 38.8281 66.1026 38.65C66.1026 37.8187 66.1026 37.0469 66.1026 36.2156C66.1026 35.9188 66.2213 35.5625 66.4588 35.3844C67.4088 34.375 68.4182 33.3656 69.4276 32.3563C69.7245 32.0594 70.0213 31.9406 70.3776 32.1187C70.7338 32.2375 70.8526 32.5938 70.8526 32.95C70.8526 33.7219 70.8526 34.4344 70.8526 35.2656C71.6245 35.2656 72.3963 35.2656 73.1682 35.2656C73.5838 35.2656 73.8807 35.3844 74.0588 35.7406C74.1776 36.1562 74.0588 36.4531 73.762 36.6906C72.7526 37.6406 71.8026 38.65 70.8526 39.6C70.6151 39.8375 70.2588 39.9562 69.962 39.9562C69.1901 40.0156 68.3588 39.9562 67.587 39.9562C67.4088 39.9562 67.1713 40.1344 66.9338 40.1938C68.2401 41.6781 69.1901 43.1625 69.9026 44.8844C70.6151 46.6063 70.9713 48.3281 71.0901 50.2281C71.8026 50.2281 72.5151 50.2281 73.1682 50.2281C73.762 50.2281 74.1182 50.525 74.1182 51C74.1182 51.475 73.762 51.7719 73.1682 51.7719C71.6245 51.7719 70.0807 51.7719 68.537 51.7719C68.3588 51.7719 68.1807 51.7719 68.1213 51.7719C67.7651 53.0781 67.587 54.3844 67.112 55.5719C65.5682 59.55 62.7182 62.1625 58.6213 63.4094C58.5026 63.4094 58.4432 63.4688 58.3245 63.4688C57.8495 63.5875 57.4932 63.35 57.3745 62.9344C57.2557 62.5187 57.4932 62.1625 57.9682 61.9844C58.2651 61.8656 58.562 61.8062 58.7995 61.6875C63.312 59.9656 65.8651 56.6406 66.3995 51.8906C66.3995 51.8312 66.3995 51.8313 66.3995 51.7125C65.7463 51.7125 65.0338 51.7125 64.3807 51.7125C63.787 51.7125 63.4307 51.4156 63.4307 50.9406C63.4307 50.4656 63.787 50.1688 64.3807 50.1688C65.9245 50.1688 67.4088 50.1688 68.9526 50.1688C69.1307 50.1688 69.3088 50.1688 69.487 50.1688C69.2495 46.7844 68.062 43.8156 65.8651 41.3219C65.5088 41.6781 65.1526 42.0344 64.7963 42.3906C64.8557 42.45 64.9151 42.5688 65.0338 42.6875C66.162 44.0531 66.9932 45.5969 67.4682 47.3187C67.7057 48.0312 67.5276 48.4469 67.0526 48.625C66.5776 48.7437 66.2213 48.4469 66.0432 47.7937C65.4495 46.25 64.6776 44.825 63.6088 43.5188ZM58.087 46.7844C56.3057 45.3 53.2182 45.1812 51.1401 47.3187C49.1213 49.4562 49.1213 52.6031 51.1995 54.6812C53.2776 56.7594 56.4838 56.8188 58.562 54.8C60.6995 52.7812 60.6995 49.6938 59.1557 47.7937C58.8588 48.0906 58.6213 48.3281 58.3245 48.625C58.087 48.8031 58.1463 48.9813 58.2651 49.2188C58.6807 50.05 58.8588 50.8813 58.6213 51.7719C58.1463 53.85 56.0088 55.1562 53.9901 54.6219C51.912 54.0875 50.6651 51.8906 51.2588 49.8719C51.912 47.7937 54.1088 46.5469 56.0682 47.3781C56.8995 47.7344 57.3745 47.4969 57.7901 46.9031C57.9682 46.9031 58.0276 46.8438 58.087 46.7844ZM57.0182 49.9906C56.4838 50.525 56.0088 51.0594 55.5338 51.5344C55.237 51.8313 54.8213 51.8313 54.5245 51.5344C54.2276 51.2375 54.1682 50.8813 54.4057 50.525C54.5245 50.4062 54.6432 50.2875 54.762 50.1688C55.1776 49.7531 55.5932 49.3375 56.0088 48.9219C54.8807 48.4469 53.7526 48.8031 53.1588 49.6938C52.5651 50.5844 52.6838 51.7719 53.4557 52.5437C54.2276 53.3156 55.3557 53.4344 56.3057 52.8406C57.137 52.2469 57.4932 51.1187 57.0182 49.9906ZM67.587 38.4125C68.2401 38.4125 68.8338 38.4125 69.4276 38.4125C69.5463 38.4125 69.7245 38.4125 69.7838 38.3531C70.2588 37.8781 70.7932 37.3438 71.387 36.75C70.8526 36.75 70.437 36.75 70.0807 36.75C69.5463 36.75 69.2495 36.4531 69.2495 35.9188C69.2495 35.5031 69.2495 35.0875 69.2495 34.5531C68.6557 35.1469 68.1807 35.6219 67.7057 36.0969C67.6463 36.1562 67.587 36.275 67.587 36.3938C67.5276 37.1063 67.587 37.7 67.587 38.4125Z" fill="white"/>
<path d="M38.9686 51.7717C38.3154 51.7717 37.6029 51.7717 36.8904 51.7717C36.2967 51.7717 35.9404 51.4749 35.9404 50.9999C35.9404 50.5249 36.2967 50.2874 36.8311 50.228C38.5529 50.228 40.2154 50.228 41.9373 50.228C42.1748 49.2186 42.2936 48.2686 42.5904 47.3186C42.8279 46.5467 43.1842 45.7749 43.4811 45.0624C43.7186 44.5874 44.1342 44.4092 44.5498 44.6467C44.9654 44.8842 45.0842 45.2999 44.7873 45.7749C44.0748 47.1999 43.5998 48.6842 43.5404 50.2874C44.1936 50.2874 44.7873 50.2874 45.4404 50.2874C46.1529 50.2874 46.5092 50.5249 46.5686 51.0592C46.5686 51.5936 46.2123 51.8311 45.4404 51.8311C43.9561 51.8311 42.5311 51.8311 41.0467 51.8311C40.8686 51.8311 40.6904 51.8311 40.5123 51.8311C40.5717 53.078 40.7498 54.2655 41.1654 55.3936C42.9467 60.5592 46.4498 63.8249 51.7342 65.1311C51.9123 65.1905 52.1498 65.2499 52.3279 65.3686C52.6248 65.6061 52.7436 65.903 52.5654 66.2592C52.3873 66.6155 52.0904 66.7936 51.6748 66.7342C49.8342 66.3186 48.0529 65.6655 46.4498 64.6561C42.1748 61.6874 39.6811 57.6499 39.0873 52.4249C39.0873 52.2467 39.0279 52.0686 39.0279 51.8905C39.0279 51.8905 39.0279 51.8311 38.9686 51.7717Z" fill="white"/>
<path d="M55.7717 66.9721C55.7717 67.6846 55.7717 68.3378 55.7717 69.0503C55.7717 69.644 55.4748 70.0003 54.9998 70.0003C54.5248 70.0003 54.2279 69.644 54.2279 69.0503C54.2279 67.5065 54.2279 65.9628 54.2279 64.419C54.2279 64.2409 54.2279 64.0628 54.2279 63.944C53.4561 63.8253 52.7436 63.7065 52.0311 63.5284C47.2217 62.2815 44.0748 59.3128 42.5904 54.5628C42.5311 54.3846 42.4717 54.2659 42.4717 54.0878C42.4717 53.6721 42.6498 53.4346 43.0061 53.3159C43.3623 53.1971 43.7186 53.3159 43.8967 53.6721C43.9561 53.8503 44.0154 54.0284 44.0748 54.2065C45.3811 58.719 49.5967 62.1628 54.2279 62.3409C54.2279 61.6878 54.2279 60.9753 54.2279 60.3221C54.2279 59.7284 54.5248 59.3721 54.9404 59.3721C55.4154 59.3721 55.7123 59.7284 55.7123 60.3221C55.7123 61.8065 55.7123 63.3503 55.7123 64.8346C55.7123 65.0128 55.7123 65.1909 55.7123 65.4878C56.6623 65.3096 57.6123 65.1909 58.5029 65.0128C60.1061 64.6565 61.5311 64.0034 62.8967 63.1128C63.0154 63.0534 63.1342 62.9346 63.2529 62.8753C63.6092 62.7565 63.9061 62.8159 64.1436 63.1128C64.3811 63.4096 64.3217 63.7659 64.0842 64.0034C63.9654 64.1221 63.7873 64.2409 63.6092 64.3596C61.2936 65.844 58.7404 66.6753 56.0092 66.9128C56.0092 66.9128 55.8904 66.9721 55.7717 66.9721Z" fill="white"/>
<path d="M67.9437 59.9654C67.1719 59.9654 66.875 59.3717 67.1719 58.7185C67.7062 57.6498 68.2406 56.5217 68.7156 55.3935C68.8937 54.9185 69.0125 54.3842 69.1312 53.9092C69.25 53.4342 69.6062 53.1967 70.0219 53.256C70.4375 53.3748 70.675 53.731 70.6156 54.2654C70.2594 56.1654 69.5469 57.8873 68.4781 59.4904C68.3 59.7279 68.0625 59.906 67.9437 59.9654Z" fill="white"/>
<path d="M48.1717 41.6779C47.9936 41.4997 47.6967 41.3216 47.578 41.0247C47.3998 40.6685 47.6373 40.3716 47.9342 40.1341C49.0623 39.4216 50.3092 38.8279 51.6155 38.531C52.0311 38.4122 52.328 38.531 52.5061 38.8872C52.7436 39.3029 52.5655 39.8372 52.0905 40.0154C50.8436 40.3716 49.7155 40.8466 48.6467 41.5591C48.5873 41.5591 48.4686 41.5591 48.1717 41.6779Z" fill="white"/>
<path d="M46.8066 42.8061C46.8066 43.2217 46.4504 43.5186 46.0348 43.5186C45.6191 43.5186 45.3223 43.1623 45.3223 42.7467C45.3223 42.3311 45.6785 42.0342 46.0941 42.0342C46.4504 42.0342 46.8066 42.3904 46.8066 42.8061Z" fill="white"/>
<path d="M66.6375 61.5689C66.6375 61.9846 66.2812 62.3408 65.8656 62.3408C65.45 62.3408 65.0938 62.0439 65.0938 61.6283C65.0938 61.2127 65.3906 60.8564 65.8062 60.8564C66.2812 60.8564 66.6375 61.1533 66.6375 61.5689Z" fill="white"/>
</g>
<defs>
<filter id="filter0_d_1511_14219" x="0" y="0" width="110" height="110" filterUnits="userSpaceOnUse" color-interpolation-filters="sRGB">
<feFlood flood-opacity="0" result="BackgroundImageFix"/>
<feColorMatrix in="SourceAlpha" type="matrix" values="0 0 0 0 0 0 0 0 0 0 0 0 0 0 0 0 0 0 127 0" result="hardAlpha"/>
<feOffset dy="4"/>
<feGaussianBlur stdDeviation="12.5"/>
<feComposite in2="hardAlpha" operator="out"/>
<feColorMatrix type="matrix" values="0 0 0 0 0.917647 0 0 0 0 0.364706 0 0 0 0 0.733333 0 0 0 0.25 0"/>
<feBlend mode="normal" in2="BackgroundImageFix" result="effect1_dropShadow_1511_14219"/>
<feBlend mode="normal" in="SourceGraphic" in2="effect1_dropShadow_1511_14219" result="shape"/>
</filter>
<clipPath id="clip0_1511_14219">
<rect width="38" height="38" fill="white" transform="translate(36 32)"/>
</clipPath>
</defs>
</svg>
