<svg width="35" height="32" viewBox="0 0 35 32" fill="none" xmlns="http://www.w3.org/2000/svg">
<mask id="mask0_1525_19231" style="mask-type:alpha" maskUnits="userSpaceOnUse" x="0" y="0" width="35" height="33">
<ellipse cx="17.5" cy="16.0001" rx="17.5" ry="16" fill="url(#paint0_linear_1525_19231)"/>
</mask>
<g mask="url(#mask0_1525_19231)">
<ellipse cx="17.5" cy="16.0001" rx="17.5" ry="16" fill="url(#paint1_linear_1525_19231)"/>
<path d="M23.065 20.4408V2.65679C23.065 2.38479 23.0737 2.08879 23.0912 1.76879C23.1263 1.44879 23.1613 1.12079 23.1963 0.784792L7.13125 20.4408H23.065ZM37.9357 20.4408V21.6888C37.9357 21.8648 37.8745 22.0088 37.752 22.1208C37.647 22.2168 37.472 22.2648 37.227 22.2648H25.27V32.0088H23.065V22.2648H5.50375C5.24125 22.2648 5.04 22.2168 4.9 22.1208C4.76 22.0088 4.66375 21.8648 4.61125 21.6888L4.375 20.5608L23.0387 -1.99921H25.27V20.4408H37.9357Z" fill="white"/>
</g>
<defs>
<linearGradient id="paint0_linear_1525_19231" x1="40.25" y1="-9.59988" x2="13.6834" y2="34.1965" gradientUnits="userSpaceOnUse">
<stop stop-color="#FF00AA"/>
<stop offset="1" stop-color="#8912DE"/>
</linearGradient>
<linearGradient id="paint1_linear_1525_19231" x1="40.25" y1="-9.59988" x2="13.6834" y2="34.1965" gradientUnits="userSpaceOnUse">
<stop stop-color="#FF00AA"/>
<stop offset="1" stop-color="#8912DE"/>
</linearGradient>
</defs>
</svg>
