<svg width="110" height="110" viewBox="0 0 110 110" fill="none" xmlns="http://www.w3.org/2000/svg">
<g filter="url(#filter0_d_1511_14233)">
<rect x="25" y="21" width="60" height="60" rx="15" fill="#CF51CE"/>
</g>
<path d="M38.5333 64.1417H55.6333V66.0417C55.6333 67.0906 56.4844 67.9417 57.5333 67.9417H60.0667C60.6208 67.9417 61.1453 67.6943 61.5016 67.2786C61.5115 67.2786 61.5214 67.2786 61.5312 67.2687C61.9964 67.7042 62.6 67.9417 63.2333 67.9417H70.8333C71.8823 67.9417 72.7333 67.0906 72.7333 66.0417C72.7333 65.7151 72.6443 65.3885 72.476 65.1115C73.337 64.5771 73.624 63.4589 73.1094 62.5781C73.5844 62.2812 73.901 61.7865 73.9802 61.2323C74.0594 60.6781 73.8813 60.1141 73.5052 59.7083C74.0099 59.1542 74.1385 58.3526 73.8318 57.6698C73.525 56.987 72.8422 56.5417 72.0901 56.5417H70.1901V36.9083C70.1901 35.513 69.0521 34.375 67.6568 34.375H38.5333C37.138 34.375 36 35.513 36 36.9083V61.6083C36 63.0036 37.138 64.1417 38.5333 64.1417ZM60.0667 66.675H57.5333C57.187 66.675 56.9 66.388 56.9 66.0417V60.3417C56.9 59.9953 57.187 59.7083 57.5333 59.7083H60.0667C60.413 59.7083 60.7 59.9953 60.7 60.3417V66.0417C60.7 66.388 60.413 66.675 60.0667 66.675ZM72.7333 58.4417C72.7333 58.788 72.4464 59.075 72.1 59.075H70.2C69.8536 59.075 69.5667 59.362 69.5667 59.7083C69.5667 60.0547 69.8536 60.3417 70.2 60.3417H72.1C72.4464 60.3417 72.7333 60.6286 72.7333 60.975C72.7333 61.3214 72.4464 61.6083 72.1 61.6083H70.2C69.8536 61.6083 69.5667 61.8953 69.5667 62.2417C69.5667 62.588 69.8536 62.875 70.2 62.875H71.4667C71.813 62.875 72.1 63.162 72.1 63.5083C72.1 63.8547 71.813 64.1417 71.4667 64.1417H70.2C69.8536 64.1417 69.5667 64.4286 69.5667 64.775C69.5667 65.1214 69.8536 65.4083 70.2 65.4083H70.8333C71.1797 65.4083 71.4667 65.6953 71.4667 66.0417C71.4667 66.388 71.1797 66.675 70.8333 66.675H63.2333C62.5307 66.675 61.9667 66.1109 61.9667 65.4083V60.0745C62.7583 59.5797 63.3521 58.8177 63.649 57.937C64.213 56.2448 64.5 54.4734 64.5 52.6922C64.5 52.6031 64.5594 52.5339 64.6385 52.5042C64.8563 52.4646 65.4203 52.3656 65.9547 53.4146C66.2516 54.0182 66.4 54.6813 66.3901 55.3641V57.175C66.3901 57.5214 66.6771 57.8083 67.0234 57.8083H72.0901C72.4464 57.8083 72.7333 58.0953 72.7333 58.4417ZM67.6667 56.5417V55.3641C67.6766 54.4932 67.4786 53.6224 67.0927 52.8406C66.4693 51.6234 65.5193 51.0594 64.4208 51.2573C63.7281 51.3859 63.2333 51.9896 63.2333 52.6922C63.2333 54.3349 62.9661 55.9776 62.4516 57.5411C62.2536 58.125 61.8677 58.6198 61.3531 58.9661C61.0068 58.6396 60.5417 58.4615 60.0667 58.4516H57.5333C56.4844 58.4516 55.6333 59.3026 55.6333 60.3516V62.8849H38.5333C37.8307 62.8849 37.2667 62.3208 37.2667 61.6182V40.7083H68.9333V56.5417H67.6667ZM38.5333 35.6417H67.6667C68.3693 35.6417 68.9333 36.2057 68.9333 36.9083V39.4417H37.2667V36.9083C37.2667 36.2057 37.8307 35.6417 38.5333 35.6417Z" fill="white"/>
<path fill-rule="evenodd" clip-rule="evenodd" d="M39.7999 37.5415C39.7999 37.8879 39.5129 38.1749 39.1665 38.1749C38.8202 38.1749 38.5332 37.8879 38.5332 37.5415C38.5332 37.1952 38.8202 36.9082 39.1665 36.9082C39.5129 36.9082 39.7999 37.1952 39.7999 37.5415Z" fill="white"/>
<path fill-rule="evenodd" clip-rule="evenodd" d="M42.3331 37.5415C42.3331 37.8879 42.0461 38.1749 41.6997 38.1749C41.3534 38.1749 41.0664 37.8879 41.0664 37.5415C41.0664 37.1952 41.3534 36.9082 41.6997 36.9082C42.0461 36.9082 42.3331 37.1952 42.3331 37.5415Z" fill="white"/>
<path fill-rule="evenodd" clip-rule="evenodd" d="M44.8663 37.5415C44.8663 37.8879 44.5793 38.1749 44.2329 38.1749C43.8866 38.1749 43.5996 37.8879 43.5996 37.5415C43.5996 37.1952 43.8866 36.9082 44.2329 36.9082C44.5793 36.9082 44.8663 37.1952 44.8663 37.5415Z" fill="white"/>
<path d="M41.067 54.0084H51.2003C52.2493 54.0084 53.1003 53.1574 53.1003 52.1084V44.5084C53.1003 43.4594 52.2493 42.6084 51.2003 42.6084H41.067C40.018 42.6084 39.167 43.4594 39.167 44.5084V52.1084C39.167 53.1574 40.018 54.0084 41.067 54.0084ZM42.6206 52.7417L45.5498 48.1303L46.955 49.8917L45.154 52.7417H42.6206ZM51.2003 52.7417H46.6581L49.993 47.4969L51.8337 49.8027V52.1183C51.8337 52.4548 51.5467 52.7417 51.2003 52.7417ZM40.4337 44.5084C40.4337 44.162 40.7206 43.8751 41.067 43.8751H51.2003C51.5467 43.8751 51.8337 44.162 51.8337 44.5084V47.774L50.4285 46.0126C50.2998 45.8542 50.1019 45.7652 49.904 45.7751C49.6962 45.785 49.518 45.8938 49.3993 46.0719L47.6873 48.7636L45.9951 46.6459C45.8665 46.4876 45.6686 46.3985 45.4706 46.4084C45.2628 46.4183 45.0847 46.5271 44.966 46.7053L41.1264 52.7417H41.067C40.7206 52.7417 40.4337 52.4548 40.4337 52.1084V44.5084Z" fill="white"/>
<path fill-rule="evenodd" clip-rule="evenodd" d="M42.9659 45.7749C42.9659 46.1213 42.6789 46.4083 42.3326 46.4083C41.9862 46.4083 41.6992 46.1213 41.6992 45.7749C41.6992 45.4286 41.9862 45.1416 42.3326 45.1416C42.6789 45.1416 42.9659 45.4286 42.9659 45.7749Z" fill="white"/>
<path fill-rule="evenodd" clip-rule="evenodd" d="M66.4 43.2412H55.6333C55.287 43.2412 55 43.5282 55 43.8745C55 44.2209 55.287 44.5079 55.6333 44.5079H66.4C66.7464 44.5079 67.0333 44.2209 67.0333 43.8745C67.0333 43.5282 66.7464 43.2412 66.4 43.2412Z" fill="white"/>
<path fill-rule="evenodd" clip-rule="evenodd" d="M66.4 45.7754H55.6333C55.287 45.7754 55 46.0624 55 46.4087C55 46.7551 55.287 47.0421 55.6333 47.0421H66.4C66.7464 47.0421 67.0333 46.7551 67.0333 46.4087C67.0333 46.0624 66.7464 45.7754 66.4 45.7754Z" fill="white"/>
<path fill-rule="evenodd" clip-rule="evenodd" d="M66.4 48.3076H55.6333C55.287 48.3076 55 48.5946 55 48.941C55 49.2873 55.287 49.5743 55.6333 49.5743H66.4C66.7464 49.5743 67.0333 49.2873 67.0333 48.941C67.0333 48.5946 66.7464 48.3076 66.4 48.3076Z" fill="white"/>
<path fill-rule="evenodd" clip-rule="evenodd" d="M61.3333 50.8418H55.6333C55.287 50.8418 55 51.1288 55 51.4751C55 51.8215 55.287 52.1085 55.6333 52.1085H61.3333C61.6797 52.1085 61.9667 51.8215 61.9667 51.4751C61.9667 51.1288 61.6797 50.8418 61.3333 50.8418Z" fill="white"/>
<path fill-rule="evenodd" clip-rule="evenodd" d="M54.367 56.542H39.8003C39.454 56.542 39.167 56.829 39.167 57.1753C39.167 57.5217 39.454 57.8087 39.8003 57.8087H54.367C54.7133 57.8087 55.0003 57.5217 55.0003 57.1753C55.0003 56.829 54.7133 56.542 54.367 56.542Z" fill="white"/>
<path fill-rule="evenodd" clip-rule="evenodd" d="M52.467 59.0742H39.8003C39.454 59.0742 39.167 59.3612 39.167 59.7076C39.167 60.0539 39.454 60.3409 39.8003 60.3409H52.467C52.8133 60.3409 53.1003 60.0539 53.1003 59.7076C53.1003 59.3612 52.8133 59.0742 52.467 59.0742Z" fill="white"/>
<defs>
<filter id="filter0_d_1511_14233" x="0" y="0" width="110" height="110" filterUnits="userSpaceOnUse" color-interpolation-filters="sRGB">
<feFlood flood-opacity="0" result="BackgroundImageFix"/>
<feColorMatrix in="SourceAlpha" type="matrix" values="0 0 0 0 0 0 0 0 0 0 0 0 0 0 0 0 0 0 127 0" result="hardAlpha"/>
<feOffset dy="4"/>
<feGaussianBlur stdDeviation="12.5"/>
<feComposite in2="hardAlpha" operator="out"/>
<feColorMatrix type="matrix" values="0 0 0 0 0.917647 0 0 0 0 0.364706 0 0 0 0 0.733333 0 0 0 0.25 0"/>
<feBlend mode="normal" in2="BackgroundImageFix" result="effect1_dropShadow_1511_14233"/>
<feBlend mode="normal" in="SourceGraphic" in2="effect1_dropShadow_1511_14233" result="shape"/>
</filter>
</defs>
</svg>
